<svg width="215" height="113" viewBox="0 0 215 113" fill="none" xmlns="http://www.w3.org/2000/svg">
<path d="M126.481 44.4439V44.5891V44.7343V44.8796V45.0248L126.627 45.1701V45.3153V45.4606V45.6058L126.774 45.7511V45.8963V46.0415V46.1868V46.332V46.4773V46.6225H126.92V46.7678V46.913L129.705 46.6225V46.4773V46.332V46.1868V46.0415V45.8963L129.558 45.7511V45.6058V45.4606V45.3153V45.1701V45.0248L129.412 44.8796V44.7343V44.5891V44.4439L129.265 44.2986V44.1534V44.0081V43.8629V43.7176L129.119 43.5724L126.334 44.2986V44.4439H126.481Z" fill="#1D1D1B"/>
<path d="M128.092 40.5228V40.3776V40.2324L127.945 40.0871V39.9419L127.799 39.7966V39.6514V39.5061L127.652 39.3609V39.2156H127.505V39.0704L127.359 38.9252V38.7799L127.212 38.6347V38.4894V38.3442L127.066 38.1989V38.0537H126.919V37.9084L124.428 39.3609V39.5061L124.574 39.6514L124.721 39.7966V39.9419V40.0871L124.867 40.2324L125.014 40.3776V40.5228V40.6681L125.161 40.8133V40.9586L125.307 41.1038V41.2491V41.3943H125.454V41.5396V41.6848L125.6 41.83L128.238 40.6681L128.092 40.5228Z" fill="#1D1D1B"/>
<path d="M125.158 35.2937L125.012 35.1484V35.0032L124.865 34.8579L124.719 34.7127L124.572 34.5674V34.4222L124.425 34.2769H124.279V34.1317L124.132 33.9865L123.986 33.8412L123.839 33.696L123.693 33.5507V33.4055H123.546L123.4 33.2602V33.115H123.253L121.201 35.0032V35.1484H121.348L121.494 35.2937V35.4389H121.641V35.5841L121.787 35.7294H121.934V35.8746L122.081 36.0199L122.227 36.1651L122.374 36.3104V36.4556L122.52 36.6009L122.667 36.7461L122.813 36.8913L122.96 37.0366L125.305 35.4389L125.158 35.2937Z" fill="#1D1D1B"/>
<path d="M121.057 30.937H120.91L120.764 30.7918L120.617 30.6465L120.47 30.5013H120.324L120.177 30.356L120.031 30.2108L119.884 30.0656H119.738L119.591 29.9203L119.445 29.7751H119.298L119.151 29.6298L119.005 29.4846L118.858 29.3393H118.712L118.565 29.1941L117.1 31.6632L117.246 31.8085H117.393L117.539 31.9537L117.686 32.099H117.832V32.2442H117.979L118.126 32.3895H118.272V32.5347H118.419L118.565 32.68L118.712 32.8252L118.858 32.9705L119.005 33.1157H119.151V33.2609H119.298L121.057 31.0823V30.937Z" fill="#1D1D1B"/>
<path d="M112.555 29.485L112.701 29.6302H112.848L112.995 29.7755H113.141H113.288L113.434 29.9207H113.581L113.727 30.066H113.874H114.02V30.2112H114.167H114.314L114.46 30.3565H114.607L115.926 27.7421H115.779H115.633L115.486 27.5968H115.339L115.193 27.4516H115.046H114.9L114.753 27.3063H114.607H114.46V27.1611H114.314L114.167 27.0158H114.02H113.874L113.727 26.8706H113.581H113.434L113.288 26.7253H113.141H112.995L112.115 29.485H112.262H112.408H112.555Z" fill="#1D1D1B"/>
<path d="M107.133 28.4677L107.28 28.6129H107.426H107.573H107.719H107.866H108.012H108.159H108.305H108.452H108.599L108.745 28.7581H108.892H109.038H109.185H109.331H109.478L110.064 25.9985H109.918H109.771H109.624L109.478 25.8533H109.331H109.185H109.038H108.892H108.745H108.599L108.452 25.708H108.305H108.159H108.012H107.866H107.719H107.573H107.426H107.28H107.133H106.986L106.84 28.4677H106.986H107.133Z" fill="#1D1D1B"/>
<path d="M145.676 44.5892V44.8797V45.0249V45.1702V45.4607V45.6059V45.7512L145.529 46.0417V46.1869V46.4774V46.6226V46.9131L145.383 47.0584V47.3489H150.073V47.0584V46.7679L150.219 46.6226V46.3321V46.0417V45.7512V45.6059V45.3154V45.0249L150.366 44.7345V44.5892L145.676 44.444V44.5892Z" fill="#1D1D1B"/>
<path d="M144.947 36.0206V36.3111V36.6016L145.094 36.7468V37.0373V37.3278L145.24 37.4731V37.7636V38.054V38.1993L145.387 38.4898V38.7803V38.9255V39.216V39.5065L145.534 39.797V39.9422V40.2327L150.077 39.797V39.5065V39.216V38.9255L149.93 38.635V38.3445V38.1993V37.9088L149.784 37.6183V37.3278V37.0373V36.7468L149.637 36.4564V36.1659V36.0206L149.491 35.7301V35.4396L149.344 35.1492V35.0039L144.801 36.0206H144.947Z" fill="#1D1D1B"/>
<path d="M142.158 27.7421L142.305 28.0325V28.1778L142.451 28.4683L142.598 28.6135V28.904L142.744 29.0493L142.891 29.3398V29.485L143.038 29.7755L143.184 29.9207V30.2112L143.331 30.5017V30.647L143.477 30.9374V31.0827L143.624 31.3732V31.5184L143.77 31.8089L148.167 30.3565L148.02 30.2112V29.9207L147.874 29.6302L147.727 29.3398V29.1945L147.581 28.904V28.6135L147.434 28.323L147.288 28.1778V27.8873L147.141 27.5968L146.995 27.3063V27.1611L146.848 26.8706L146.701 26.5801L146.555 26.4349V26.1444L146.408 25.8539L142.158 27.7421Z" fill="#1D1D1B"/>
<path d="M137.766 20.335L137.912 20.6255L138.059 20.7707L138.205 20.9159L138.352 21.2064L138.498 21.3517L138.645 21.4969L138.792 21.7874L138.938 21.9327L139.085 22.0779L139.231 22.3684V22.5136L139.378 22.8041L139.524 22.9494L139.671 23.0946L139.817 23.3851L139.964 23.5303L140.111 23.6756V23.9661L144.068 21.6422V21.3517L143.921 21.2064L143.774 20.9159L143.628 20.7707L143.481 20.4802L143.335 20.1897L143.188 20.0445L143.042 19.754L142.895 19.6087L142.749 19.3183L142.602 19.173L142.455 18.8825L142.309 18.7373L142.162 18.4468L142.016 18.3015L141.869 18.011L141.576 17.8658L141.43 17.7206V17.5753L137.766 20.335Z" fill="#1D1D1B"/>
<path d="M132.047 14.2351L132.34 14.5256L132.487 14.6709L132.633 14.8161L132.78 14.9613L132.926 15.1066L133.219 15.2518L133.366 15.3971L133.513 15.5423L133.659 15.6876L133.806 15.9781L133.952 16.1233L134.245 16.2685L134.392 16.4138L134.538 16.559L134.685 16.7043L134.832 16.9948H134.978L138.349 13.9446L138.202 13.7994L138.056 13.6541L137.909 13.3637L137.616 13.2184L137.47 13.0732L137.323 12.7827L137.03 12.6374L136.883 12.4922L136.737 12.3469L136.59 12.0564L136.297 11.9112L136.151 11.766L136.004 11.6207L135.711 11.3302L135.564 11.185L135.418 11.0397L135.125 10.8945L134.978 10.7492L134.832 10.604L131.754 14.0899H131.9L132.047 14.2351Z" fill="#1D1D1B"/>
<path d="M124.867 9.29571L125.014 9.44095H125.307L125.454 9.5862L125.747 9.73144L125.893 9.87669L126.04 10.0219L126.333 10.1672H126.479L126.773 10.3124L126.919 10.4577L127.066 10.6029L127.359 10.7482L127.505 10.8934L127.798 11.0386L127.945 11.1839L128.092 11.3291H128.385L130.876 7.55278L130.73 7.40753L130.437 7.26229L130.29 7.11704L129.997 6.9718L129.85 6.82655L129.557 6.68131L129.411 6.53606L129.117 6.39082H128.971L128.678 6.24557L128.385 6.10033L128.238 5.95509L127.945 5.80984L127.798 5.6646L127.505 5.51935L127.212 5.37411L127.066 5.22886L126.773 5.08362L124.574 9.15047L124.867 9.29571Z" fill="#1D1D1B"/>
<path d="M116.953 6.09975H117.246L117.393 6.24499H117.686L117.979 6.39024H118.126L118.419 6.53548H118.565L118.859 6.68073H119.152L119.298 6.82597L119.591 6.97122H119.738L120.031 7.11646H120.178L120.471 7.26171H120.617L122.376 3.04961H122.083L121.936 2.90437L121.643 2.75912H121.35L121.057 2.61388L120.91 2.46864H120.617L120.324 2.32339H120.031L119.884 2.17815L119.591 2.0329H119.298L119.005 1.88766H118.859L118.565 1.74241H118.272L117.979 1.59717H117.686L116.514 5.9545H116.807L116.953 6.09975Z" fill="#1D1D1B"/>
<path d="M108.453 4.64783H108.6H108.893H109.186H109.479H109.626H109.919L110.212 4.79307H110.359H110.652H110.945H111.091L111.385 4.93832H111.678H111.971H112.117L112.264 5.08356L112.997 0.580978L112.85 0.435734H112.557H112.264H112.117L111.824 0.290489H111.531H111.238H110.945L110.652 0.145245H110.359H110.066H109.772H109.479L109.186 0H109.04H108.747H108.453H108.16L107.867 4.50258L108.16 4.64783H108.453Z" fill="#1D1D1B"/>
<path d="M136.297 45.0254V45.1706L136.443 45.4611V45.6064V45.7516V46.0421V46.1874V46.3326V46.6231L136.59 46.7683V46.9136V47.2041V47.3493H140.547V47.0588V46.9136V46.6231V46.4778V46.1874V46.0421V45.7516L140.4 45.6064V45.3159V45.1706V44.8802V44.7349L140.254 44.4444V44.2992V44.1539L136.297 44.8802V45.0254Z" fill="#1D1D1B"/>
<path d="M134.393 37.9094V38.1999L134.539 38.3452V38.4904L134.686 38.6356V38.7809L134.832 39.0714V39.2166L134.979 39.3619V39.5071V39.6524L135.125 39.9428V40.0881L135.272 40.2333V40.3786V40.6691L135.419 40.8143V40.9596V41.1048L139.376 40.0881V39.7976L139.229 39.6524V39.3619L139.082 39.2166V39.0714L138.936 38.7809V38.6356L138.789 38.4904V38.1999L138.643 38.0547V37.7642V37.6189L138.496 37.4737L138.35 37.1832V37.038L138.203 36.8927V36.6022L138.057 36.457V36.3117L137.91 36.0212L134.246 37.6189V37.7642L134.393 37.9094Z" fill="#1D1D1B"/>
<path d="M130.582 31.3727L130.729 31.518L130.875 31.6632L131.022 31.8084V31.9537L131.168 32.0989L131.315 32.2442V32.3894L131.461 32.5347L131.608 32.6799L131.755 32.8252V33.1156L131.901 33.2609L132.048 33.4061V33.5514L132.194 33.6966L132.341 33.8419V33.9871L132.487 34.1324V34.2776L136.005 32.2442V32.0989L135.858 31.9537L135.712 31.8084V31.6632L135.565 31.3727L135.418 31.2275L135.272 31.0822L135.125 30.937V30.6465L134.979 30.5012L134.832 30.356L134.686 30.2107V30.0655L134.539 29.9203L134.393 29.6298L134.246 29.4845L134.099 29.3393L133.953 29.194V29.0488L133.806 28.9035L133.66 28.7583L130.436 31.0822L130.582 31.2275V31.3727Z" fill="#1D1D1B"/>
<path d="M130.729 25.4182L130.583 25.273L130.436 25.1277L130.29 24.9825L130.143 24.8372L129.997 24.692L129.85 24.5467L129.703 24.4015L129.557 24.2563L129.41 24.111L129.264 23.9658L129.117 23.8205L128.971 23.6753L128.824 23.53L128.678 23.3848L128.531 23.2395L128.384 23.0943L128.238 22.9491L127.945 22.8038L127.798 22.6586L125.16 25.7087L125.307 25.8539L125.453 25.9992H125.6L125.746 26.1444L125.893 26.2897L126.039 26.4349L126.186 26.5802L126.333 26.7254H126.479L126.626 26.8707V27.0159L126.772 27.1611L126.919 27.3064L127.065 27.4516L127.212 27.5969H127.359L127.505 27.7421L127.652 27.8874L127.798 28.0326L127.945 28.1779V28.3231L130.876 25.4182H130.729Z" fill="#1D1D1B"/>
<path d="M122.08 18.8814H121.933L121.64 18.7361L121.494 18.5909H121.347L121.2 18.4456L120.907 18.3004H120.761L120.614 18.1552H120.468L118.709 21.7863H118.856L119.002 21.9315H119.149L119.295 22.0768H119.588L119.735 22.222L119.881 22.3672H120.028L120.175 22.5125H120.321L120.468 22.6577L120.614 22.803H120.907L121.054 22.9482H121.2L121.347 23.0935L121.494 23.2387H121.64L121.787 23.384L121.933 23.5292H122.08L124.278 20.1886L124.132 20.0433L123.838 19.8981H123.692L123.545 19.7528L123.399 19.6076H123.252L122.959 19.4624L122.813 19.3171L122.666 19.1719H122.373L122.226 19.0266L122.08 18.8814Z" fill="#1D1D1B"/>
<path d="M112.702 15.6866L112.409 15.5414H112.262L111.529 19.463H111.676L111.822 19.6082H112.116H112.262H112.409L112.555 19.7535H112.848H112.995L113.141 19.8987H113.288H113.581L113.728 20.044H113.874H114.021L114.314 20.1892H114.46H114.607L114.754 20.3345H115.047H115.193V20.4797L116.512 16.5581H116.366H116.219L115.926 16.4128H115.779L115.633 16.2676H115.34H115.193L114.9 16.1224H114.754H114.607L114.314 15.9771H114.167L113.874 15.8319H113.728H113.435L113.288 15.6866H113.141H112.848H112.702Z" fill="#1D1D1B"/>
<path d="M112.554 96.7332L112.261 97.0236L112.115 97.3141L111.968 97.4594L111.675 97.7499L111.528 98.0404L111.382 98.1856L111.089 98.4761L110.942 98.7666L110.649 98.9118L110.502 99.2023L110.356 99.3476L110.209 99.638L109.916 99.9285L109.77 100.074L109.623 100.364L113.14 103.124L113.287 102.979L113.58 102.688L113.727 102.543L113.873 102.252L114.166 102.107L114.313 101.817L114.459 101.526L114.753 101.381L114.899 101.09L115.046 100.945L115.339 100.655L115.485 100.364L115.632 100.219L115.925 99.9285L116.072 99.638L112.554 96.7332Z" fill="#1D1D1B"/>
<path d="M118.269 89.9065L117.976 90.1969L117.829 90.3422L117.536 90.6327L117.39 90.9232L117.097 91.2137L116.95 91.5041L116.657 91.6494L116.51 91.9399L116.364 92.2304L116.071 92.5209L115.924 92.8113L115.631 92.9566L115.484 93.2471L119.002 96.152L119.148 95.8615L119.441 95.7162L119.588 95.4257L119.881 95.1353L120.028 94.8448L120.321 94.6995L120.467 94.409L120.76 94.1185L120.907 93.8281L121.2 93.5376L121.347 93.3923L121.64 93.1018L121.786 92.8113L121.933 92.6661L118.416 89.616L118.269 89.9065Z" fill="#1D1D1B"/>
<path d="M105.814 22.0774C107.133 19.6083 108.013 17.8653 109.478 15.2509L107.719 11.7651L105.961 8.42444L104.056 11.9103L102.297 15.3962C103.469 17.7201 104.642 19.7535 105.814 22.0774Z" fill="#1D1D1B"/>
<path d="M83.3881 11.3281H83.5347L83.6812 11.1828L83.9743 11.0376L84.1209 10.8923L84.414 10.7471L84.5606 10.6018L84.7071 10.4566L85.0002 10.3113L85.1468 10.1661H85.2933L85.5865 10.0209L85.733 9.87561L86.0261 9.73036L86.1727 9.58512L86.4658 9.43988H86.6124L86.7589 9.29463H86.9055L84.7071 5.22778H84.5606L84.414 5.37303L84.1209 5.51827L83.9743 5.66352L83.6812 5.80876L83.3881 5.95401L83.2415 6.09925L82.9484 6.2445L82.8019 6.38974H82.5088L82.3622 6.53498L82.0691 6.68023L81.9225 6.82547L81.6294 6.97072L81.3363 7.11596L81.1897 7.26121L80.8966 7.40645L80.7501 7.5517L80.6035 7.69694L83.2415 11.4733L83.3881 11.3281Z" fill="#1D1D1B"/>
<path d="M91.8896 33.5514H92.0362L92.1827 33.4061L92.3293 33.2609H92.4758V33.1156H92.6224L92.769 32.9704H92.9155V32.8251L93.0621 32.6799H93.2086V32.5347H93.3552L93.5017 32.3894L93.6483 32.2442H93.7949L93.9414 32.0989L94.088 31.9537L92.4758 29.6298L92.3293 29.775H92.1827V29.9203H92.0362L91.8896 30.0655H91.7431L91.5965 30.2107V30.356H91.4499L91.3034 30.5012H91.1568L91.0103 30.6465V30.7917H90.8637L90.7172 30.937H90.5706V31.0822L90.424 31.2275H90.2775L90.1309 31.3727V31.5179H89.9844L91.8896 33.6966V33.5514Z" fill="#1D1D1B"/>
<path d="M89.8409 23.385L89.9875 23.2398H90.1341L90.2806 23.0945L90.4272 22.9493H90.7203L90.8668 22.8041H91.0134L91.16 22.6588L91.3065 22.5136H91.4531L91.5996 22.3683H91.7462L92.0393 22.2231L92.1859 22.0778H92.3324L92.479 21.9326H92.6255L92.7721 21.7873H92.9186L93.0652 21.6421L91.4531 18.011L91.3065 18.1562H91.16L90.8668 18.3015H90.7203L90.5737 18.4467L90.2806 18.592H90.1341L89.9875 18.7372L89.8409 18.8825H89.5478L89.4013 19.0277L89.2547 19.1729H89.1082L88.815 19.3182L88.6685 19.4634L88.5219 19.6087H88.3754L88.0822 19.7539L87.9357 19.8992H87.7891L87.6426 20.0444L89.6944 23.5303L89.8409 23.385Z" fill="#1D1D1B"/>
<path d="M71.5196 23.9666L71.6662 23.6761V23.5308L71.8127 23.3856L71.9593 23.0951L72.1058 22.9499L72.2524 22.8046L72.399 22.5141L72.5455 22.3689L72.6921 22.0784L72.8386 21.9332V21.7879L72.9852 21.4974L73.1317 21.3522L73.2783 21.2069L73.4249 20.9164L73.5714 20.7712L73.718 20.626L73.8645 20.4807L70.054 17.7211V17.8663L69.9075 18.0116L69.7609 18.302L69.6144 18.4473L69.4678 18.7378L69.3213 18.883L69.0281 19.1735L68.8816 19.3188L68.735 19.6092L68.5885 19.7545L68.4419 20.045L68.2954 20.1902L68.1488 20.4807L68.0022 20.7712V20.9164L67.8557 21.2069L67.7091 21.3522L67.5626 21.6427L67.416 21.7879L71.3731 24.1118L71.5196 23.9666Z" fill="#1D1D1B"/>
<path d="M76.6482 17.1389L76.7947 16.9937L76.9413 16.7032L77.0878 16.5579L77.2344 16.4127L77.5275 16.2675L77.6741 16.1222L77.8206 15.977L77.9672 15.6865L78.1137 15.5412L78.2603 15.396L78.5534 15.2507L78.7 15.1055L78.8465 14.9603L78.9931 14.815L79.1396 14.6698L79.4327 14.5245L79.5793 14.234L79.7259 14.0888L76.7947 10.7482H76.6482L76.5016 10.8934L76.355 11.0387L76.0619 11.1839L75.9154 11.3291L75.7688 11.6196L75.4757 11.7649L75.3291 11.9101L75.1826 12.0554L74.8895 12.3459L74.7429 12.4911L74.5964 12.6363L74.4498 12.7816L74.1567 13.0721L74.0101 13.2173L73.8636 13.3626L73.5705 13.6531L73.4239 13.7983L73.2773 13.9435V14.0888L76.6482 17.1389Z" fill="#1D1D1B"/>
<path d="M83.9761 28.032V27.8867L84.1227 27.7415L84.2693 27.5963H84.4158L84.5624 27.451L84.7089 27.3058L84.8555 27.1605L85.002 27.0153L85.1486 26.87L85.2952 26.7248H85.4417L85.5883 26.5795L85.7348 26.4343L85.8814 26.2891V26.1438L86.0279 25.9986H86.1745L86.3211 25.8533L86.4676 25.7081L86.6142 25.5628L84.1227 22.5127L83.9761 22.6579H83.8296L83.683 22.8032L83.5365 22.9484L83.3899 23.0937L83.2434 23.2389L83.0968 23.3842L82.8037 23.5294L82.6571 23.6747L82.5106 23.8199L82.364 23.9651L82.2174 24.1104L82.0709 24.2556L81.9243 24.4009L81.7778 24.5461L81.6312 24.6914L81.4847 24.8366L81.3381 24.9819L81.1916 25.1271L81.045 25.2723H80.8984L83.8296 28.1772L83.9761 28.032Z" fill="#1D1D1B"/>
<path d="M91.0127 7.40695L91.1592 7.26171L91.4523 7.11646H91.5989L91.892 6.97122H92.1851L92.3317 6.82597L92.6248 6.68073H92.7714L93.0645 6.53548H93.211L93.5041 6.39024H93.7973L93.9438 6.24499H94.2369L94.3835 6.09975H94.6766L94.9697 5.9545L93.7973 1.59717H93.6507L93.3576 1.74241H93.0645L92.9179 1.88766H92.6248L92.3317 2.0329H92.0386L91.892 2.17815L91.5989 2.32339H91.3058L91.0127 2.46864H90.8661L90.573 2.61388L90.2799 2.75912H89.9868L89.8402 2.90437L89.5471 3.04961H89.254L89.1074 3.19486L90.8661 7.40695H91.0127Z" fill="#1D1D1B"/>
<path d="M99.2191 5.08356L99.5122 4.93832H99.8053H99.9519H100.245L100.538 4.79307H100.685H100.978H101.271H101.564L101.711 4.64783H102.004H102.297H102.443H102.736H103.03H103.323H103.469H103.616L103.323 0H103.03H102.736H102.443L102.15 0.145245H101.857H101.564H101.271H100.978L100.685 0.290489H100.392H100.098H99.9519L99.6588 0.435734H99.3657H99.0726H98.7794L98.4863 0.580978L99.2191 5.08356Z" fill="#1D1D1B"/>
<path d="M101.713 28.9034H101.86H102.006L102.153 28.7581H102.3H102.446H102.593H102.739H102.886L103.032 28.6129H103.179H103.325H103.472H103.619H103.765H103.912H104.058H104.205L103.912 25.708H103.765H103.619H103.472H103.325H103.179L103.032 25.8533H102.886H102.739H102.593H102.446H102.3H102.153L102.006 25.9985H101.86H101.713H101.567H101.42H101.274L101.127 26.1437H100.981H100.834L101.567 28.9034H101.713Z" fill="#1D1D1B"/>
<path d="M96.7272 20.3345H96.8738L97.0203 20.1892H97.1669H97.46L97.6066 20.044H97.7531H97.8997L98.1928 19.8987H98.3393H98.4859L98.6325 19.7535H98.9256H99.0721L99.2187 19.6082H99.3653H99.6584H99.8049L99.9515 19.463H100.245L99.5118 15.5414H99.2187L99.0721 15.6866H98.779H98.6325H98.3393L98.1928 15.8319H97.8997H97.7531L97.6066 15.9771H97.3135L97.1669 16.1224H96.8738H96.7272L96.4341 16.2676H96.2875H96.141L95.8479 16.4128H95.7013L95.4082 16.5581L96.5807 20.3345H96.7272Z" fill="#1D1D1B"/>
<path d="M61.4082 45.3159V45.6064V45.7517V46.0422V46.3327L61.5548 46.6231V46.7684V47.0589V47.3494H66.2446V47.0589V46.9136L66.098 46.6231V46.4779V46.1874V46.0422V45.8969V45.6064V45.4612L65.9515 45.1707V45.0255V44.8802V44.5897L61.4082 44.8802V45.0255V45.3159Z" fill="#1D1D1B"/>
<path d="M96.4362 30.6465H96.5828V30.5012H96.7293H96.8759L97.0224 30.356H97.169L97.3155 30.2108H97.4621H97.6087L97.7552 30.0655H97.9018L98.0483 29.9203H98.1949H98.3414L98.488 29.775H98.6346L98.7811 29.6298H98.9277L97.9018 27.0154H97.7552H97.6087L97.4621 27.1606H97.3155L97.169 27.3059H97.0224H96.8759L96.7293 27.4511H96.5828H96.4362L96.2896 27.5964H96.1431L95.9965 27.7416H95.85L95.7034 27.8868H95.5569L95.4103 28.0321H95.2637L95.1172 28.1773L96.4362 30.6465Z" fill="#1D1D1B"/>
<path d="M86.7621 34.8586V35.0039L86.6155 35.1491L86.469 35.2943L86.3224 35.4396V35.5848L86.1759 35.7301V35.8753H86.0293V36.0206L88.3742 37.6183L88.5208 37.473V37.3278L88.6673 37.1825L88.8139 37.0373V36.892H88.9604V36.7468L89.107 36.6015L89.2536 36.4563V36.3111L89.4001 36.1658H89.5467V36.0206H89.6932V35.8753L89.8398 35.7301L89.9864 35.5848L87.788 33.6967V33.8419H87.6414L87.4949 33.9871V34.1324L87.3483 34.2776H87.2018V34.4229L87.0552 34.5681L86.9086 34.7134L86.7621 34.8586Z" fill="#1D1D1B"/>
<path d="M85.8842 42.2661L86.0308 42.1209V41.9756L86.1773 41.8304V41.6851V41.5399L86.3239 41.3947V41.2494L86.4704 41.1042V40.9589V40.8137H86.617V40.6684V40.5232L86.7635 40.3779V40.2327H86.9101V40.0875V39.9422L84.4186 38.635L84.2721 38.7803V38.9255L84.1255 39.0707V39.216L83.979 39.3612V39.5065L83.8324 39.6517V39.797V39.9422L83.6858 40.0875V40.2327L83.5393 40.3779V40.5232V40.6684L83.3927 40.8137V40.9589L83.2462 41.1042V41.2494L83.0996 41.3947L85.8842 42.4114V42.2661Z" fill="#1D1D1B"/>
<path d="M101.566 100.655L101.419 100.364L101.273 100.074L100.979 99.9285L100.833 99.638L100.686 99.4927L100.393 99.2022L100.247 98.9118L100.1 98.7665L99.9535 98.476L99.6604 98.1855L99.5138 98.0403L99.3673 97.7498L99.0742 97.4593L98.9276 97.3141L98.781 97.1688L95.2637 100.074L95.5568 100.364L95.7033 100.655L95.8499 100.8L96.143 101.09L96.2896 101.381L96.4361 101.526L96.7292 101.817L96.8758 102.107L97.0224 102.252L97.3155 102.543L97.462 102.688L97.6086 102.979L97.7551 103.269L98.0483 103.414V103.56L101.712 100.8L101.566 100.655Z" fill="#1D1D1B"/>
<path d="M95.8489 93.5376L95.5558 93.2471L95.4092 92.9566L95.2627 92.8114L94.9696 92.5209L94.823 92.2304L94.5299 91.9399L94.3833 91.7947L94.0902 91.5042L93.9437 91.2137L93.6506 90.9232L93.504 90.6327L93.3574 90.4875L93.0643 90.197V90.0518L89.4004 92.9566L89.5469 93.1019L89.6935 93.2471L89.9866 93.5376L90.1332 93.8281L90.2797 94.1186L90.5728 94.4091L90.7194 94.5543L91.0125 94.8448L91.1591 95.1353L91.4522 95.4258L91.5987 95.7163L91.8919 95.8615L92.0384 96.152L92.185 96.4425H92.3315L95.8489 93.6829V93.5376Z" fill="#1D1D1B"/>
<path d="M66.098 40.2333L66.2445 39.9428V39.7976V39.5071V39.2166V38.9261L66.3911 38.7809V38.4904V38.1999V38.0547V37.7642L66.5376 37.4737V37.3284V37.038L66.6842 36.7475V36.6022V36.3117L66.8307 36.1665L62.2875 35.1498L62.1409 35.4403V35.7308V36.0212L61.9944 36.1665V36.457V36.7475L61.8478 37.038V37.3284V37.6189V37.9094L61.7012 38.1999V38.3452V38.6356V38.9261L61.5547 39.2166V39.5071V39.7976V39.9428L66.098 40.3786V40.2333Z" fill="#1D1D1B"/>
<path d="M100.979 107.19L101.125 107.335L105.815 113L110.651 107.19L105.815 102.833L100.979 107.19Z" fill="#1D1D1B"/>
<path d="M105.815 89.616L103.763 92.2304L101.711 94.8448L103.763 97.6044L105.815 100.219L107.866 97.6044L109.918 94.8448L107.866 92.2304L105.961 89.616H105.815Z" fill="#1D1D1B"/>
<path d="M71.3732 44.0081V44.2985V44.4438V44.7343L71.2266 44.8795V45.17V45.3153V45.6057V45.751V46.0415L71.0801 46.1867V46.4772V46.6225V46.9129V47.0582V47.3487H75.0371L75.1837 47.2034V46.9129V46.7677V46.6225V46.332V46.1867V46.0415V45.751L75.3302 45.6057V45.4605V45.17V45.0248V44.8795L75.4768 44.589L71.3732 44.0081Z" fill="#1D1D1B"/>
<path d="M67.8576 31.8094L68.0042 31.5189V31.3737L68.1508 31.0832V30.9379L68.2973 30.6475L68.4439 30.5022V30.2117L68.5904 29.9212V29.776L68.737 29.4855L68.8836 29.3403V29.0498L69.0301 28.9045V28.614L69.1767 28.4688L69.3232 28.1783V28.0331L69.4698 27.8878L65.2196 25.9996V26.1449L65.0731 26.4354L64.9265 26.5806L64.78 26.8711V27.1616L64.6334 27.3068L64.4868 27.5973V27.8878L64.3403 28.1783L64.1937 28.3235V28.614L64.0472 28.9045L63.9006 29.195V29.3403L63.7541 29.6307V29.9212L63.6075 30.2117L63.4609 30.357V30.5022L67.8576 31.9547V31.8094Z" fill="#1D1D1B"/>
<path d="M79.2869 33.9866L79.4335 33.8413V33.6961L79.58 33.5509L79.7266 33.4056V33.2604L79.8731 33.1151L80.0197 32.8246V32.6794L80.1662 32.5341L80.3128 32.3889L80.4594 32.2437V32.0984L80.6059 31.9532L80.7525 31.8079V31.6627L80.899 31.5174L81.0456 31.3722L81.1921 31.2269V31.0817L81.3387 30.9365L78.1144 28.6125H77.9679V28.903L77.8213 29.0483L77.6748 29.1935L77.5282 29.3388L77.3817 29.484L77.2351 29.6293V29.9197L77.0885 30.065L76.942 30.2102L76.7954 30.3555L76.6489 30.5007V30.646L76.5023 30.9365L76.3558 31.0817L76.2092 31.2269V31.3722L76.0626 31.6627L75.9161 31.8079L75.7695 31.9532V32.0984L79.2869 34.1318V33.9866Z" fill="#1D1D1B"/>
<path d="M76.2109 40.9589L76.3574 40.8137V40.6684V40.3779L76.504 40.2327V40.0875L76.6505 39.9422V39.6517V39.5065L76.7971 39.3612V39.216L76.9437 39.0707V38.7803L77.0902 38.635V38.4898V38.3445L77.2368 38.1993V37.9088L77.3833 37.7635V37.6183L77.5299 37.4731L73.866 35.8754L73.7194 36.0206L73.5728 36.3111V36.4563L73.4263 36.6016V36.8921L73.2797 37.0373V37.1826L73.1332 37.4731V37.6183L72.9866 37.7635V38.054L72.8401 38.1993V38.4898L72.6935 38.635V38.7803L72.5469 39.0707V39.216V39.3612L72.4004 39.6517V39.797V39.9422L76.2109 40.9589Z" fill="#1D1D1B"/>
<path d="M84.7104 47.2047V47.0595L84.8569 46.9142V46.769V46.6237V46.4785V46.3332V46.188V46.0427L85.0035 45.8975V45.7523V45.607V45.4618V45.3165L85.15 45.1713V45.026V44.8808L82.3655 44.2998V44.445L82.2189 44.5903V44.7355V44.8808V45.026V45.1713L82.0723 45.3165V45.4618V45.607V45.7523V45.8975V46.0427L81.9258 46.188V46.3332V46.4785V46.6237V46.769V46.9142V47.0595V47.2047V47.3499H84.7104V47.2047Z" fill="#1D1D1B"/>
<path d="M212.654 68.9903L202.835 61.4375C201.516 60.4208 200.929 59.1136 200.929 57.8064C200.929 54.4658 204.007 53.0134 206.938 53.0134C209.723 53.0134 212.361 54.0301 212.361 57.2255H212.947L212.8 51.9966H211.188C209.869 51.7062 208.404 51.5609 206.645 51.5609C203.714 51.5609 200.929 52.5776 199.317 55.0468C197.559 57.8064 198.145 61.728 200.636 63.9067L210.456 71.3142C211.628 72.3309 212.214 73.6381 212.214 75.2358C212.214 79.0121 208.697 80.6098 205.326 80.6098C201.222 80.6098 198.291 77.9954 198.878 73.7833H198.291C197.852 74.9453 197.705 76.2525 197.705 77.4144C197.705 78.5764 197.705 79.4479 197.852 79.7384C199.757 81.4813 203.714 82.0623 206.352 82.0623C210.895 82.0623 214.999 78.8669 214.999 74.2191C214.999 71.8952 214.119 70.1522 212.654 68.9903Z" fill="#1D1D1B"/>
<path d="M162.387 80.0283C161.801 79.5926 161.361 78.8664 161.361 78.1401V55.1915C161.361 54.4653 161.801 53.8843 162.387 53.4486C163.266 52.7224 164.145 52.7224 165.318 52.7224V52.2866H154.326V52.7224C155.499 52.7224 156.378 52.7224 157.257 53.4486C157.844 54.0296 158.283 54.6105 158.283 55.3368V78.1401C158.283 79.7378 156.525 80.7545 155.059 80.7545H154.326V81.1903H165.465V80.7545C164.145 80.7545 163.266 80.7545 162.387 80.0283Z" fill="#1D1D1B"/>
<path d="M146.41 77.2698C145.677 76.5435 144.798 75.3816 143.625 73.9291C142.453 72.4767 141.867 71.7505 141.867 71.7505C140.401 69.717 139.082 68.4098 138.056 67.9741C142.599 67.5384 145.677 64.1977 145.677 59.6952C145.677 54.1759 140.548 52.1425 135.711 52.1425H123.4V52.5782H124.133C125.599 52.5782 126.918 53.5949 126.918 55.0473V77.996C126.918 78.7222 126.625 79.3032 126.038 79.8842C125.159 80.6104 124.426 80.6104 123.4 80.6104V81.0461H133.366V80.6104C132.633 80.6104 132.047 80.6104 131.314 80.3199C130.435 79.7389 129.995 79.0127 129.995 77.996V53.7401H132.633C135.272 53.7401 138.203 53.5949 140.401 55.4831C142.746 57.6617 142.599 61.7286 140.987 64.343C140.548 64.924 139.815 65.505 138.789 66.0859C138.056 66.5217 135.711 66.6669 131.901 66.6669V67.1026C134.978 67.1026 137.47 71.3147 139.229 73.6386C140.987 76.1078 142.16 78.1412 144.798 79.8842C146.996 81.4819 149.781 81.3366 152.419 81.3366V80.9009C149.488 80.7556 148.022 79.1579 146.41 77.2698Z" fill="#1D1D1B"/>
<path d="M120.03 52.5779V46.4777C119.737 46.6229 119.15 46.7682 118.124 47.0586C117.099 47.3491 115.78 47.4944 114.167 47.4944H97.6064C95.9943 47.4944 93.2097 47.2039 91.7441 46.6229V52.7232H92.1838V51.8517C92.1838 50.254 93.3563 48.9468 94.9684 48.9468H104.202V77.9957C104.202 78.8672 103.908 79.4482 103.176 80.0292C102.296 80.9006 101.563 80.9006 100.391 80.9006V81.3364H111.09V80.9006H110.503C108.745 80.9006 107.426 79.5934 107.426 77.8505V48.8016H116.659C118.271 48.8016 119.443 50.1088 119.443 51.7065V52.5779H120.03Z" fill="#1D1D1B"/>
<path d="M182.172 52.1425H170.74V52.5782H171.473C172.939 52.5782 174.258 53.5949 174.258 55.1926V78.1412C174.258 78.8675 173.964 79.4484 173.378 80.0294C172.499 80.7556 171.766 80.7556 170.74 80.7556V81.1914H180.853V80.7556C180.12 80.7556 179.534 80.7556 178.801 80.4651C177.922 80.0294 177.482 79.1579 177.335 78.1412V53.5949H182.025C186.129 53.5949 189.793 55.4831 189.793 59.9857C189.793 61.1476 189.646 62.0191 189.5 62.6001C188.913 64.343 187.887 65.7954 186.422 66.5217C184.517 67.8289 181.439 67.9741 179.241 67.3931V67.8289C180.853 68.5551 182.611 68.9908 184.37 68.9908C189.646 68.9908 193.31 65.505 193.31 60.2762C193.31 54.3211 187.448 52.1425 182.172 52.1425Z" fill="#1D1D1B"/>
<path d="M107.278 84.532C107.278 83.0795 106.252 82.6438 104.787 83.37C93.5019 89.3251 84.1223 79.5937 75.7685 65.9407L83.6826 55.0473C84.2688 54.3211 85.0016 53.7401 85.7344 53.3044C86.9069 52.5782 87.7862 52.5782 88.9587 52.5782V52.1425H78.1134V52.5782C78.8462 52.5782 79.579 52.5782 80.1652 53.3044C80.6049 53.8854 80.898 54.4664 80.3118 55.1926L74.4495 64.0525L68.2941 55.1926C67.8544 54.4664 68.001 54.0306 68.4406 53.3044C68.8803 52.5782 69.7597 52.5782 70.4924 52.5782V52.1425H59.061V52.5782H59.6472C61.4059 52.5782 63.3111 53.5949 64.337 55.0473L72.5442 66.8121L63.4577 78.4317C61.8456 80.3199 60.5266 80.7556 58.1816 80.7556V81.1914H68.8803V80.7556C68.1475 80.7556 67.2682 80.7556 66.8285 80.0294C66.3888 79.3032 66.0957 78.7222 66.682 77.996L73.8633 68.4098C87.7862 88.4536 107.425 90.0513 107.278 84.532Z" fill="#1D1D1B"/>
<path d="M13.9229 79.7388H6.88819V50.8351C6.88819 50.2541 7.03474 49.8184 7.32786 49.2374C8.2072 47.785 9.2331 47.785 10.6987 47.785V47.3492H0V47.785H0.586229C2.34491 47.785 3.66393 49.0922 3.66393 50.8351V77.7054C3.66393 79.4483 2.19836 80.7555 0.586229 80.7555H0V81.1912H20.2249L23.0095 73.348H22.5698C20.9577 77.5601 18.6128 79.7388 13.9229 79.7388Z" fill="#1D1D1B"/>
<path d="M48.6594 52.7224H49.3922C50.7112 52.7224 51.7371 53.5938 51.7371 54.7558V71.0232C51.7371 76.9782 47.9266 80.6093 41.9178 80.6093C35.6158 80.6093 32.6847 76.3972 32.6847 70.4422V54.7558C32.6847 54.1748 32.9778 53.7391 33.4175 53.3033C34.1503 52.5771 34.8831 52.7224 35.7624 52.7224V52.2866H26.5293V52.7224C27.4086 52.7224 28.1414 52.7224 28.8742 53.3033C29.3139 53.7391 29.607 54.1748 29.607 54.7558V71.0232C29.607 78.2854 34.8831 81.9165 41.7712 81.9165C48.6594 81.9165 53.9355 78.2854 53.9355 71.0232V54.7558C53.9355 54.32 54.082 54.0296 54.2286 53.7391C54.9614 52.7224 55.8407 52.7224 57.0132 52.7224V52.2866H48.6594V52.7224V52.7224Z" fill="#1D1D1B"/>
</svg>
